<?xml version="1.0" standalone="no"?>
<!DOCTYPE svg PUBLIC "-//W3C//DTD SVG 20010904//EN"
 "http://www.w3.org/TR/2001/REC-SVG-20010904/DTD/svg10.dtd">
<svg version="1.0" xmlns="http://www.w3.org/2000/svg"
 width="260.000000pt" height="260.000000pt" viewBox="0 0 260.000000 260.000000"
 preserveAspectRatio="xMidYMid meet">
<metadata>
Created by potrace 1.14, written by Peter Selinger 2001-2017
</metadata>
<g transform="translate(0.000000,260.000000) scale(0.100000,-0.100000)"
fill="#000000" stroke="none">
<path d="M76 2573 c-3 -3 -1 -13 4 -23 5 -10 7 -20 4 -23 -10 -10 -12 -77 -2
-77 5 0 4 -8 -1 -18 -9 -17 -3 -18 92 -16 132 2 144 3 132 12 -15 10 -19 82
-5 82 6 0 8 5 5 10 -4 6 -11 7 -17 4 -7 -5 -8 -2 -2 7 13 21 11 33 -6 40 -24
10 -43 -1 -29 -17 9 -11 8 -14 -1 -14 -10 0 -10 -3 0 -15 7 -8 8 -15 3 -15 -6
0 -8 -11 -5 -25 3 -20 0 -25 -17 -25 -21 0 -25 14 -23 76 1 14 -7 24 -19 27
-17 5 -24 -4 -20 -25 0 -5 -4 -8 -10 -8 -8 0 -8 -4 0 -13 8 -10 7 -17 -2 -27
-9 -10 -9 -11 1 -6 6 4 12 3 12 -2 0 -10 -23 -22 -41 -22 -6 0 -7 5 -4 10 3 6
2 10 -3 10 -5 0 -6 17 -2 40 5 27 4 43 -4 47 -15 10 -33 12 -40 6z"/>
<path d="M449 2556 c-1 -25 -1 -139 0 -182 l1 -32 335 2 c184 0 335 -1 336 -4
1 -3 2 -135 3 -295 l1 -290 -75 -75 c-41 -41 -79 -75 -85 -75 -5 0 -10 -4 -10
-10 0 -13 -217 -230 -230 -230 -5 0 -10 -5 -10 -10 0 -15 -178 -191 -190 -187
-5 2 -7 1 -3 -3 3 -4 -11 -25 -33 -47 -21 -22 -39 -50 -40 -62 -1 -26 -1 -298
0 -308 1 -4 16 7 34 25 19 18 32 35 30 40 -2 4 0 7 5 7 14 0 121 107 114 114
-3 3 0 6 7 6 14 0 61 48 61 63 0 6 3 8 6 5 7 -8 114 101 114 115 0 6 3 8 6 5
7 -7 74 59 74 73 0 6 3 8 8 6 9 -5 92 79 85 87 -4 3 -2 6 4 6 14 0 123 107
115 114 -3 3 0 6 6 6 15 0 122 107 114 114 -3 3 0 6 5 6 6 0 36 24 66 54 l54
54 1 256 c1 141 4 261 7 266 3 6 3 10 -2 10 -4 0 -7 90 -6 199 l2 199 -454 -1
c-454 0 -455 0 -456 -21z"/>
<path d="M1633 2571 c-4 -3 -8 -133 -7 -289 0 -156 -3 -285 -8 -288 -5 -3 -5
-11 0 -17 11 -14 10 -87 -1 -104 -4 -6 -3 -14 1 -17 12 -7 12 -95 0 -102 -5
-3 -4 -11 2 -19 5 -7 9 -23 6 -36 -2 -13 1 -33 6 -43 6 -10 84 -92 175 -182
103 -103 162 -168 157 -175 -4 -8 -3 -9 4 -5 13 8 109 -81 105 -96 -2 -4 2 -8
7 -8 16 0 355 -343 352 -355 -2 -5 0 -7 3 -3 4 4 23 -8 41 -27 19 -19 37 -35
42 -35 5 0 8 72 8 161 l0 161 -213 214 c-117 117 -213 210 -213 207 0 -3 -9 6
-21 21 -11 14 -63 69 -116 121 l-95 96 -2 119 c-2 78 1 117 7 113 6 -4 7 -1 2
6 -10 17 -14 242 -4 235 4 -2 4 8 0 24 -9 30 -7 79 3 90 8 7 69 7 89 -1 10 -4
17 -3 17 1 0 4 123 7 272 7 l273 0 0 105 c0 58 4 108 9 111 5 4 -4 9 -20 12
-40 8 -870 6 -881 -2z"/>
<path d="M81 2362 c-8 -14 -5 -23 10 -36 11 -9 24 -14 29 -11 4 3 15 -2 24
-10 8 -9 17 -15 18 -15 2 1 16 -2 31 -5 28 -7 28 -8 7 -22 -12 -8 -24 -12 -27
-9 -4 3 -15 -1 -25 -11 -10 -9 -18 -13 -18 -10 0 10 -39 -7 -40 -18 -1 -5 -6
-18 -11 -27 -6 -10 -5 -19 1 -23 5 -3 10 -1 10 6 0 7 2 10 6 7 3 -3 42 9 86
28 44 18 85 31 89 28 5 -3 9 1 9 10 0 8 5 16 11 18 27 9 -25 58 -53 50 -5 -1
-8 3 -8 8 0 6 -6 10 -12 9 -12 -2 -67 19 -110 42 -13 7 -20 4 -27 -9z"/>
<path d="M150 2132 c0 -5 -11 -7 -25 -4 -35 6 -58 -14 -43 -38 6 -10 17 -16
23 -14 25 10 85 10 89 0 2 -8 7 -8 15 0 7 6 29 9 50 7 34 -4 38 -2 37 19 -1
28 -15 40 -35 29 -8 -5 -27 -5 -43 -1 -17 5 -28 5 -28 -1 0 -6 -8 -5 -20 1
-11 6 -20 7 -20 2z"/>
<path d="M80 2030 c-8 -14 -8 -20 0 -20 6 0 8 -5 4 -12 -11 -17 -11 -58 -1
-58 5 0 5 -6 -1 -12 -20 -25 -3 -68 26 -65 14 1 17 8 15 34 l-2 33 87 0 c81 0
88 2 88 20 0 23 2 22 -86 24 -73 2 -89 8 -86 33 3 16 -15 43 -28 43 -3 0 -10
-9 -16 -20z"/>
<path d="M155 1841 c-31 -9 -65 -35 -65 -49 0 -7 -3 -11 -8 -9 -6 4 -8 -38 -3
-86 3 -37 101 -101 116 -77 3 5 12 7 20 4 9 -4 29 8 48 27 30 30 33 40 32 80
-2 48 -29 98 -52 99 -7 0 -13 3 -13 8 0 9 -47 11 -75 3z m55 -52 c0 -4 9 -9
20 -12 15 -4 20 -14 20 -40 0 -36 -21 -64 -39 -52 -6 3 -9 0 -6 -7 4 -9 -2
-14 -15 -14 -11 0 -20 4 -20 9 0 4 -4 5 -10 2 -5 -3 -10 -1 -10 5 0 6 -4 8
-10 5 -5 -3 -10 1 -10 9 0 9 -4 16 -8 16 -5 0 -9 7 -9 15 0 8 4 15 9 15 5 0 7
4 4 8 -6 11 5 26 29 40 21 11 55 12 55 1z"/>
<path d="M77 1559 c-3 -10 3 -25 12 -33 50 -47 60 -54 65 -48 3 3 6 -2 6 -12
0 -9 -4 -15 -9 -11 -5 3 -26 -11 -47 -30 -34 -33 -36 -37 -22 -51 12 -12 35
-16 84 -16 138 1 132 -1 126 27 -3 17 -10 25 -21 23 -9 -1 -21 1 -28 5 -6 4
-14 3 -18 -3 -3 -5 -11 -10 -16 -10 -6 0 -7 6 -3 13 5 8 2 7 -10 -2 -13 -11
-19 -12 -29 -2 -9 10 -8 11 7 5 13 -5 17 -4 12 4 -4 7 -3 12 2 12 5 0 19 9 31
19 l22 19 -22 21 c-13 12 -28 21 -35 21 -7 0 -15 4 -18 9 -4 5 19 8 50 7 31 0
58 2 61 7 2 4 9 4 15 1 8 -5 9 -1 5 10 -4 10 -7 21 -7 25 0 4 -47 7 -104 7
-91 0 -105 -2 -109 -17z"/>
<path d="M1447 1397 c-99 -108 -157 -167 -157 -160 0 4 -8 -4 -17 -17 -18 -26
-47 -57 -190 -208 -46 -47 -83 -90 -83 -95 0 -4 -4 -5 -10 -2 -5 3 -10 1 -10
-4 0 -6 -15 -26 -32 -44 -18 -19 -89 -94 -158 -167 -69 -73 -166 -174 -216
-226 -50 -52 -89 -94 -86 -94 2 0 -6 -8 -18 -18 -21 -17 -22 -25 -24 -185 -1
-108 3 -167 9 -167 6 0 28 23 50 50 22 28 43 50 47 50 5 0 8 4 8 9 0 10 42 59
98 117 19 19 32 34 29 34 -2 0 30 35 72 79 68 70 144 150 406 428 44 47 106
112 138 145 31 33 57 61 57 62 0 2 29 33 65 69 l65 66 53 -53 c81 -83 142
-150 160 -176 9 -14 17 -21 17 -17 0 4 24 -19 54 -50 30 -32 79 -85 110 -118
31 -33 56 -63 56 -67 0 -5 7 -8 17 -8 9 0 14 -3 11 -6 -3 -3 19 -31 51 -63 31
-32 102 -107 157 -167 56 -60 123 -130 148 -156 25 -26 46 -51 46 -55 0 -5 11
-17 25 -27 13 -10 22 -22 20 -27 -3 -4 4 -11 16 -14 11 -4 18 -9 16 -12 -9 -8
64 -88 81 -88 4 0 7 72 7 160 l1 160 -41 44 c-22 24 -48 51 -57 59 -9 9 -14
20 -11 26 3 6 3 8 -1 4 -7 -5 -53 40 -213 208 -22 24 -40 44 -38 44 2 0 -13
17 -33 38 -20 21 -40 37 -44 35 -5 -2 -8 1 -8 7 0 6 -21 33 -47 59 -27 26 -97
101 -158 166 -60 65 -135 145 -166 177 -31 32 -55 58 -54 58 1 0 -38 41 -87
90 -49 50 -90 90 -91 89 -1 0 -19 -19 -40 -42z"/>
<path d="M145 1308 c-16 -4 -38 -20 -49 -34 -19 -27 -30 -104 -14 -104 5 0 7
-4 4 -9 -8 -12 23 -45 62 -65 24 -12 32 -13 32 -4 0 10 2 10 9 -1 6 -10 10
-10 16 -1 4 6 12 9 19 7 12 -5 59 41 64 63 2 8 9 18 15 22 7 4 8 8 2 8 -5 0
-11 10 -11 23 -1 12 -4 29 -5 36 -5 18 -48 61 -63 62 -42 5 -54 5 -81 -3z m65
-49 c0 -5 4 -8 9 -4 13 7 31 -27 31 -59 0 -36 -54 -70 -84 -54 -24 13 -51 38
-40 38 3 0 1 7 -6 15 -9 11 -9 15 -1 15 7 0 9 5 5 11 -4 7 3 19 15 28 25 19
71 26 71 10z"/>
<path d="M82 1064 c-14 -15 -14 -18 -1 -51 4 -12 5 -24 0 -27 -4 -3 -6 -20 -5
-38 1 -18 3 -38 3 -45 1 -14 40 -13 42 2 1 5 2 18 2 28 0 21 24 27 95 24 30
-1 56 1 59 6 2 4 9 4 15 1 8 -5 9 -1 5 10 -4 10 -7 21 -7 26 0 4 -34 7 -75 6
-82 -2 -90 0 -92 27 -2 50 -3 52 -12 38 -5 -7 -10 -9 -12 -3 -2 6 -9 4 -17 -4z"/>
<path d="M74 847 c4 -29 18 -36 69 -33 75 3 107 -10 107 -42 0 -33 -10 -48
-30 -47 -8 1 -20 -3 -27 -7 -6 -5 -14 -5 -18 2 -3 6 -12 7 -18 3 -16 -10 -61
-10 -68 0 -3 5 -9 -1 -12 -12 -3 -12 -1 -21 5 -21 5 0 6 -4 3 -10 -4 -6 23
-10 74 -10 44 0 83 5 86 10 4 6 10 8 14 5 5 -2 14 8 20 23 7 15 12 27 10 27
-1 0 3 10 10 23 7 14 8 22 1 22 -5 0 -10 8 -10 18 0 41 -36 57 -130 59 -64 1
-88 -1 -86 -10z"/>
<path d="M290 643 c0 -6 -11 -9 -25 -8 -14 2 -25 -2 -25 -8 0 -5 -3 -7 -6 -4
-4 4 -20 -3 -37 -15 -17 -12 -27 -16 -22 -7 6 10 2 9 -15 -4 -14 -9 -32 -20
-40 -23 -35 -13 -45 -23 -42 -40 4 -23 15 -34 33 -38 8 -2 36 -13 62 -24 27
-12 55 -22 63 -22 8 0 14 -5 14 -12 0 -6 3 -8 7 -5 3 4 12 2 20 -4 7 -6 13 -8
14 -3 0 5 2 17 4 27 2 9 -3 17 -11 17 -8 0 -14 5 -14 11 0 5 -4 7 -10 4 -11
-7 -11 -7 -14 52 -2 34 1 44 16 49 19 6 43 52 33 62 -3 3 -5 1 -5 -5z m-91
-114 c-11 -22 -13 -23 -38 -7 -19 12 -19 12 2 23 31 16 49 8 36 -16z"/>
<path d="M236 383 c-4 -9 -2 -21 4 -27 17 -17 11 -64 -11 -85 -14 -13 -31 -18
-52 -15 -32 4 -61 30 -51 45 3 5 0 9 -6 9 -8 0 -8 6 0 21 21 38 20 55 -5 57
-17 1 -26 -6 -33 -26 -21 -60 9 -136 58 -149 14 -3 28 -11 32 -17 5 -7 8 -7 8
2 0 7 4 11 9 8 11 -7 58 9 75 27 24 23 34 52 32 88 -4 57 -46 100 -60 62z"/>
<path d="M124 170 c-22 -8 -37 -26 -40 -45 -1 -5 -4 -22 -7 -37 -3 -16 -2 -28
3 -28 6 0 6 -10 0 -25 -5 -14 -8 -25 -7 -26 7 -3 204 -4 214 -1 15 5 10 31 -8
43 -8 5 -22 6 -31 3 -14 -4 -18 1 -19 25 -2 52 -12 72 -46 90 -25 13 -30 13
-59 1z m54 -58 c16 -34 3 -59 -30 -57 -17 1 -22 8 -24 31 -2 36 0 39 25 41 12
1 25 -6 29 -15z"/>
</g>
</svg>
