<?xml version="1.0" standalone="no"?>
<!DOCTYPE svg PUBLIC "-//W3C//DTD SVG 20010904//EN"
 "http://www.w3.org/TR/2001/REC-SVG-20010904/DTD/svg10.dtd">
<svg version="1.0" xmlns="http://www.w3.org/2000/svg"
 width="268.000000pt" height="268.000000pt" viewBox="0 0 268.000000 268.000000"
 preserveAspectRatio="xMidYMid meet">
<metadata>
Created by potrace 1.14, written by Peter Selinger 2001-2017
</metadata>
<g transform="translate(0.000000,268.000000) scale(0.100000,-0.100000)"
fill="#000000" stroke="none">
<path d="M499 2205 c-7 -94 -6 -95 74 -95 l73 0 -1 52 c0 40 -4 53 -16 56 -12
2 -16 -6 -15 -35 1 -27 -4 -39 -15 -41 -12 -2 -15 5 -14 33 2 28 -1 35 -14 33
-11 -2 -15 -13 -15 -36 1 -21 -3 -32 -12 -32 -10 0 -14 13 -14 40 0 29 -4 40
-15 40 -8 0 -15 -7 -16 -15z"/>
<path d="M750 2140 l0 -80 230 0 230 0 0 -200 0 -200 -230 -231 -230 -230 0
-115 0 -114 310 310 310 310 0 315 0 315 -310 0 -310 0 0 -80z"/>
<path d="M1551 1908 l0 -313 302 -302 c166 -167 304 -303 308 -303 3 0 5 50 4
111 l-1 110 -225 225 -224 224 0 200 0 200 225 0 226 0 -1 80 0 80 -307 0
-306 0 -1 -312z"/>
<path d="M496 2074 c-6 -16 10 -28 57 -44 43 -13 40 -22 -15 -39 -34 -11 -56
-35 -40 -45 13 -8 145 51 148 66 3 20 -143 81 -150 62z"/>
<path d="M499 1904 c-15 -18 -1 -22 77 -21 52 0 71 4 71 14 0 16 3 15 -75 17
-39 1 -67 -3 -73 -10z"/>
<path d="M499 1843 c-6 -66 1 -110 16 -110 9 0 15 10 15 24 0 21 4 23 58 23
46 0 59 3 59 15 0 12 -13 15 -59 15 -54 0 -58 2 -58 23 0 25 -29 34 -31 10z"/>
<path d="M552 1722 c-27 -4 -55 -44 -57 -79 -2 -59 89 -98 128 -55 21 22 29
70 16 93 -13 25 -58 46 -87 41z m54 -57 c16 -24 16 -27 -1 -45 -31 -34 -75
-19 -75 25 0 48 49 60 76 20z"/>
<path d="M500 1521 c0 -11 13 -28 30 -37 l29 -18 -34 -23 c-53 -36 -38 -53 45
-53 51 0 69 4 74 15 6 16 -4 18 -59 16 l-30 -2 29 25 c28 24 29 24 7 35 -32
18 -25 29 16 27 27 -1 37 3 39 17 2 15 -7 17 -72 17 -67 0 -74 -2 -74 -19z"/>
<path d="M1359 1342 c-52 -54 -152 -160 -224 -237 -71 -76 -169 -179 -216
-229 -47 -50 -105 -111 -127 -136 l-42 -45 0 -112 c0 -62 2 -113 4 -113 3 0
30 30 62 68 75 89 122 139 492 529 l153 161 57 -61 c68 -73 69 -74 253 -268
221 -233 274 -291 305 -329 16 -19 43 -51 61 -70 l33 -35 0 115 -1 115 -62 66
c-34 37 -117 124 -183 195 -67 71 -141 149 -164 174 -196 209 -294 310 -300
310 -4 0 -49 -44 -101 -98z"/>
<path d="M515 1334 c-37 -40 -20 -103 32 -122 49 -17 88 9 99 66 5 25 1 36
-19 56 -35 35 -80 35 -112 0z m91 -29 c16 -24 16 -27 -2 -46 -22 -24 -52 -21
-71 8 -13 19 -12 24 6 42 28 28 47 26 67 -4z"/>
<path d="M499 1173 c-2 -45 0 -96 5 -101 9 -9 26 10 26 29 0 17 6 19 43 18 64
-2 74 0 74 16 0 12 -13 15 -58 15 -51 0 -58 2 -61 22 -5 33 -28 34 -29 1z"/>
<path d="M500 1032 c0 -14 7 -17 45 -14 47 4 75 -9 71 -33 -3 -23 -13 -28 -63
-30 -65 -3 -63 -3 -56 -21 4 -12 17 -14 66 -10 69 6 74 9 82 53 8 50 -20 73
-90 73 -46 0 -55 -3 -55 -18z"/>
<path d="M558 873 c-31 -14 -59 -32 -62 -40 -7 -18 135 -85 146 -69 5 6 -1 17
-12 25 -26 17 -27 69 -2 79 23 9 27 32 5 31 -10 0 -44 -12 -75 -26z m20 -53
c-2 -6 -8 -6 -18 0 -13 9 -13 11 0 20 15 10 25 0 18 -20z"/>
<path d="M611 731 c-10 -7 -11 -13 -2 -30 23 -42 -25 -79 -67 -52 -8 5 -12 21
-10 41 4 41 -18 52 -32 16 -23 -63 43 -122 105 -94 25 11 47 52 42 78 -6 30
-22 49 -36 41z"/>
<path d="M528 583 c-18 -4 -24 -19 -31 -80 l-4 -33 78 0 c68 0 77 2 75 18 -2
11 -10 16 -25 14 -17 -3 -21 2 -21 27 0 26 -31 64 -50 60 -3 -1 -13 -3 -22 -6z
m42 -59 c0 -33 -33 -30 -38 4 -3 17 2 22 17 22 16 0 21 -6 21 -26z"/>
</g>
</svg>
